<svg width="158" height="105" viewBox="0 0 158 105" fill="none" xmlns="http://www.w3.org/2000/svg">
<path d="M26.7 102L31.8 87.15V26.85L0.600001 38.7V22.5L40.05 1.19999H55.35V87.15L58.65 102H26.7ZM116.023 104.4C101.173 104.4 92.4727 102.45 81.3727 100.2L77.4727 75.45L95.1727 85.5C100.723 86.85 105.223 87.6 112.723 87.6C125.173 87.6 131.623 82.5 131.623 73.05C131.623 63.45 122.473 58.95 101.773 58.95V43.2C121.873 43.2 129.673 39.15 129.673 29.1C129.673 21.15 123.823 16.05 113.323 16.05C106.723 16.05 102.823 16.95 97.7227 18.3L79.1227 27.6L82.7227 4.2C95.6227 1.5 104.923 -1.07288e-06 115.873 -1.07288e-06C140.023 -1.07288e-06 154.273 9.9 154.273 26.55C154.273 39.3 145.873 47.85 130.723 50.25C148.423 52.65 157.423 61.5 157.423 75.3C157.423 93.3 142.423 104.4 116.023 104.4Z" fill="#0072CD"/>
</svg>
